<svg xmlns="http://www.w3.org/2000/svg" viewBox="0 0 720 1360">
  <style>
    .header { fill: #8b949e; font-family: -apple-system, system-ui, sans-serif; font-size: 10px; font-weight: 500; }
    .model { fill: #c9d1d9; font-family: -apple-system, system-ui, sans-serif; font-size: 14px; font-weight: 600; }
    .cell { fill: #8b949e; font-family: ui-monospace, monospace; font-size: 11px; }
    .value { fill: #c9d1d9; font-family: ui-monospace, monospace; font-size: 14px; }
    .gain { fill: #57ab5a; font-family: ui-monospace, monospace; font-size: 12px; }
    .gain-big { fill: #57ab5a; font-family: ui-monospace, monospace; font-size: 12px; font-weight: 600; }
    .grid { stroke: #21262d; stroke-width: 1; }
    .foot { fill: #484f58; font-family: -apple-system, system-ui, sans-serif; font-size: 9px; }
  </style>

  <!-- Section title for single card benchmarks -->
  <text x="360" y="20" class="model" text-anchor="middle">Single MI50 (@iacoppbk server)</text>
  <text x="360" y="34" class="foot" text-anchor="middle">ROCm 7.1.1 · K Q8_0, V F16 · pl@225W</text>

  <!-- Header row -->
  <text x="80" y="58" class="header" text-anchor="middle">MODEL</text>
  <text x="200" y="58" class="header" text-anchor="middle">CTX</text>
  <text x="280" y="58" class="header" text-anchor="middle">TEST</text>
  <text x="380" y="58" class="header" text-anchor="middle">VANILLA [tok/s]</text>
  <text x="480" y="58" class="header" text-anchor="middle">FORK [tok/s]</text>
  <text x="600" y="58" class="header" text-anchor="middle">GAIN</text>

  <line x1="16" y1="70" x2="704" y2="70" class="grid"/>

  <!-- Qwen3 4B Q4_0 -->
  <text x="80" y="94" class="model" text-anchor="middle">Qwen3 4B Q4_0</text>

  <text x="200" y="94" class="cell" text-anchor="middle">—</text>
  <text x="280" y="94" class="cell" text-anchor="middle">pp512</text>
  <text x="380" y="94" class="value" text-anchor="middle">1858</text>
  <text x="480" y="94" class="value" text-anchor="middle">2177</text>
  <text x="600" y="94" class="gain-big" text-anchor="middle">+17.2%</text>

  <line x1="160" y1="106" x2="704" y2="106" class="grid" opacity="0.4"/>

  <text x="200" y="126" class="cell" text-anchor="middle">—</text>
  <text x="280" y="126" class="cell" text-anchor="middle">tg128</text>
  <text x="380" y="126" class="value" text-anchor="middle">140</text>
  <text x="480" y="126" class="value" text-anchor="middle">144</text>
  <text x="600" y="126" class="gain" text-anchor="middle">+2.9%</text>

  <line x1="160" y1="138" x2="704" y2="138" class="grid" opacity="0.4"/>

  <text x="200" y="158" class="cell" text-anchor="middle">8192</text>
  <text x="280" y="158" class="cell" text-anchor="middle">pp512</text>
  <text x="380" y="158" class="value" text-anchor="middle">934</text>
  <text x="480" y="158" class="value" text-anchor="middle">1063</text>
  <text x="600" y="158" class="gain-big" text-anchor="middle">+13.8%</text>

  <line x1="160" y1="170" x2="704" y2="170" class="grid" opacity="0.4"/>

  <text x="200" y="190" class="cell" text-anchor="middle">8192</text>
  <text x="280" y="190" class="cell" text-anchor="middle">tg128</text>
  <text x="380" y="190" class="value" text-anchor="middle">71</text>
  <text x="480" y="190" class="value" text-anchor="middle">111</text>
  <text x="600" y="190" class="gain-big" text-anchor="middle">+56.3%</text>

  <line x1="16" y1="206" x2="704" y2="206" class="grid"/>

  <!-- Qwen3 4B Q4_1 -->
  <text x="80" y="230" class="model" text-anchor="middle">Qwen3 4B Q4_1</text>

  <text x="200" y="230" class="cell" text-anchor="middle">—</text>
  <text x="280" y="230" class="cell" text-anchor="middle">pp512</text>
  <text x="380" y="230" class="value" text-anchor="middle">1943</text>
  <text x="480" y="230" class="value" text-anchor="middle">2172</text>
  <text x="600" y="230" class="gain-big" text-anchor="middle">+11.8%</text>

  <line x1="160" y1="242" x2="704" y2="242" class="grid" opacity="0.4"/>

  <text x="200" y="262" class="cell" text-anchor="middle">—</text>
  <text x="280" y="262" class="cell" text-anchor="middle">tg128</text>
  <text x="380" y="262" class="value" text-anchor="middle">142</text>
  <text x="480" y="262" class="value" text-anchor="middle">144</text>
  <text x="600" y="262" class="gain" text-anchor="middle">+1.4%</text>

  <line x1="160" y1="274" x2="704" y2="274" class="grid" opacity="0.4"/>

  <text x="200" y="294" class="cell" text-anchor="middle">8192</text>
  <text x="280" y="294" class="cell" text-anchor="middle">pp512</text>
  <text x="380" y="294" class="value" text-anchor="middle">967</text>
  <text x="480" y="294" class="value" text-anchor="middle">1061</text>
  <text x="600" y="294" class="gain" text-anchor="middle">+9.7%</text>

  <line x1="160" y1="306" x2="704" y2="306" class="grid" opacity="0.4"/>

  <text x="200" y="326" class="cell" text-anchor="middle">8192</text>
  <text x="280" y="326" class="cell" text-anchor="middle">tg128</text>
  <text x="380" y="326" class="value" text-anchor="middle">72</text>
  <text x="480" y="326" class="value" text-anchor="middle">114</text>
  <text x="600" y="326" class="gain-big" text-anchor="middle">+58.3%</text>

  <line x1="16" y1="342" x2="704" y2="342" class="grid"/>

  <!-- Qwen3 4B Q8_0 -->
  <text x="80" y="366" class="model" text-anchor="middle">Qwen3 4B Q8_0</text>

  <text x="200" y="366" class="cell" text-anchor="middle">—</text>
  <text x="280" y="366" class="cell" text-anchor="middle">pp512</text>
  <text x="380" y="366" class="value" text-anchor="middle">1033</text>
  <text x="480" y="366" class="value" text-anchor="middle">1402</text>
  <text x="600" y="366" class="gain-big" text-anchor="middle">+35.7%</text>

  <line x1="160" y1="378" x2="704" y2="378" class="grid" opacity="0.4"/>

  <text x="200" y="398" class="cell" text-anchor="middle">—</text>
  <text x="280" y="398" class="cell" text-anchor="middle">tg128</text>
  <text x="380" y="398" class="value" text-anchor="middle">110</text>
  <text x="480" y="398" class="value" text-anchor="middle">118</text>
  <text x="600" y="398" class="gain" text-anchor="middle">+7.3%</text>

  <line x1="160" y1="410" x2="704" y2="410" class="grid" opacity="0.4"/>

  <text x="200" y="430" class="cell" text-anchor="middle">8192</text>
  <text x="280" y="430" class="cell" text-anchor="middle">pp512</text>
  <text x="380" y="430" class="value" text-anchor="middle">667</text>
  <text x="480" y="430" class="value" text-anchor="middle">830</text>
  <text x="600" y="430" class="gain-big" text-anchor="middle">+24.4%</text>

  <line x1="160" y1="442" x2="704" y2="442" class="grid" opacity="0.4"/>

  <text x="200" y="462" class="cell" text-anchor="middle">8192</text>
  <text x="280" y="462" class="cell" text-anchor="middle">tg128</text>
  <text x="380" y="462" class="value" text-anchor="middle">62</text>
  <text x="480" y="462" class="value" text-anchor="middle">96</text>
  <text x="600" y="462" class="gain-big" text-anchor="middle">+54.8%</text>

  <line x1="16" y1="478" x2="704" y2="478" class="grid"/>

  <!-- Qwen3-VL 30B A3B Q4_1 -->
  <text x="80" y="502" class="model" text-anchor="middle">Qwen3-VL 30B A3B Q4_1</text>

  <text x="200" y="502" class="cell" text-anchor="middle">—</text>
  <text x="280" y="502" class="cell" text-anchor="middle">pp512</text>
  <text x="380" y="502" class="value" text-anchor="middle">1395</text>
  <text x="480" y="502" class="value" text-anchor="middle">1541</text>
  <text x="600" y="502" class="gain-big" text-anchor="middle">+10.5%</text>

  <line x1="160" y1="514" x2="704" y2="514" class="grid" opacity="0.4"/>

  <text x="200" y="534" class="cell" text-anchor="middle">—</text>
  <text x="280" y="534" class="cell" text-anchor="middle">tg128</text>
  <text x="380" y="534" class="value" text-anchor="middle">110</text>
  <text x="480" y="534" class="value" text-anchor="middle">125</text>
  <text x="600" y="534" class="gain-big" text-anchor="middle">+13.6%</text>

  <line x1="160" y1="546" x2="704" y2="546" class="grid" opacity="0.4"/>

  <text x="200" y="566" class="cell" text-anchor="middle">8192</text>
  <text x="280" y="566" class="cell" text-anchor="middle">pp512</text>
  <text x="380" y="566" class="value" text-anchor="middle">741</text>
  <text x="480" y="566" class="value" text-anchor="middle">782</text>
  <text x="600" y="566" class="gain" text-anchor="middle">+5.5%</text>

  <line x1="160" y1="578" x2="704" y2="578" class="grid" opacity="0.4"/>

  <text x="200" y="598" class="cell" text-anchor="middle">8192</text>
  <text x="280" y="598" class="cell" text-anchor="middle">tg128</text>
  <text x="380" y="598" class="value" text-anchor="middle">61</text>
  <text x="480" y="598" class="value" text-anchor="middle">101</text>
  <text x="600" y="598" class="gain-big" text-anchor="middle">+65.6%</text>

  <line x1="16" y1="614" x2="704" y2="614" class="grid"/>

  <!-- Qwen3-Next 80B A3B Q2_K -->
  <text x="80" y="638" class="model" text-anchor="middle">Qwen3-Next 80B A3B Q2_K</text>

  <text x="200" y="638" class="cell" text-anchor="middle">—</text>
  <text x="280" y="638" class="cell" text-anchor="middle">pp512</text>
  <text x="380" y="638" class="value" text-anchor="middle">—</text>
  <text x="480" y="638" class="value" text-anchor="middle">119</text>
  <text x="600" y="638" class="gain" text-anchor="middle">—</text>

  <line x1="160" y1="650" x2="704" y2="650" class="grid" opacity="0.4"/>

  <text x="200" y="670" class="cell" text-anchor="middle">—</text>
  <text x="280" y="670" class="cell" text-anchor="middle">tg128</text>
  <text x="380" y="670" class="value" text-anchor="middle">35</text>
  <text x="480" y="670" class="value" text-anchor="middle">35</text>
  <text x="600" y="670" class="gain" text-anchor="middle">~0%</text>

  <line x1="16" y1="686" x2="704" y2="686" class="grid"/>

  <!-- GPT-OSS 20B MXFP4 -->
  <text x="80" y="710" class="model" text-anchor="middle">GPT-OSS 20B MXFP4</text>

  <text x="200" y="710" class="cell" text-anchor="middle">—</text>
  <text x="280" y="710" class="cell" text-anchor="middle">pp512</text>
  <text x="380" y="710" class="value" text-anchor="middle">1229</text>
  <text x="480" y="710" class="value" text-anchor="middle">1326</text>
  <text x="600" y="710" class="gain" text-anchor="middle">+7.9%</text>

  <line x1="160" y1="722" x2="704" y2="722" class="grid" opacity="0.4"/>

  <text x="200" y="742" class="cell" text-anchor="middle">—</text>
  <text x="280" y="742" class="cell" text-anchor="middle">tg128</text>
  <text x="380" y="742" class="value" text-anchor="middle">134</text>
  <text x="480" y="742" class="value" text-anchor="middle">146</text>
  <text x="600" y="742" class="gain" text-anchor="middle">+9.0%</text>

  <line x1="160" y1="754" x2="704" y2="754" class="grid" opacity="0.4"/>

  <text x="200" y="774" class="cell" text-anchor="middle">8192</text>
  <text x="280" y="774" class="cell" text-anchor="middle">pp512</text>
  <text x="380" y="774" class="value" text-anchor="middle">951</text>
  <text x="480" y="774" class="value" text-anchor="middle">1035</text>
  <text x="600" y="774" class="gain" text-anchor="middle">+8.8%</text>

  <line x1="160" y1="786" x2="704" y2="786" class="grid" opacity="0.4"/>

  <text x="200" y="806" class="cell" text-anchor="middle">8192</text>
  <text x="280" y="806" class="cell" text-anchor="middle">tg128</text>
  <text x="380" y="806" class="value" text-anchor="middle">105</text>
  <text x="480" y="806" class="value" text-anchor="middle">136</text>
  <text x="600" y="806" class="gain-big" text-anchor="middle">+29.5%</text>

  <line x1="16" y1="822" x2="704" y2="822" class="grid"/>

  <!-- Qwen3-Coder REAP 25B A3B Q8_0 (NEW) -->
  <text x="80" y="846" class="model" text-anchor="middle">Qwen3-Coder REAP 25B Q8_0</text>

  <text x="200" y="846" class="cell" text-anchor="middle">—</text>
  <text x="280" y="846" class="cell" text-anchor="middle">pp512</text>
  <text x="380" y="846" class="value" text-anchor="middle">818</text>
  <text x="480" y="846" class="value" text-anchor="middle">1097</text>
  <text x="600" y="846" class="gain-big" text-anchor="middle">+34.1%</text>

  <line x1="160" y1="858" x2="704" y2="858" class="grid" opacity="0.4"/>

  <text x="200" y="878" class="cell" text-anchor="middle">—</text>
  <text x="280" y="878" class="cell" text-anchor="middle">tg128</text>
  <text x="380" y="878" class="value" text-anchor="middle">92</text>
  <text x="480" y="878" class="value" text-anchor="middle">101</text>
  <text x="600" y="878" class="gain" text-anchor="middle">+9.8%</text>

  <line x1="160" y1="890" x2="704" y2="890" class="grid" opacity="0.4"/>

  <text x="200" y="910" class="cell" text-anchor="middle">8192</text>
  <text x="280" y="910" class="cell" text-anchor="middle">pp512</text>
  <text x="380" y="910" class="value" text-anchor="middle">540</text>
  <text x="480" y="910" class="value" text-anchor="middle">653</text>
  <text x="600" y="910" class="gain-big" text-anchor="middle">+20.9%</text>

  <line x1="160" y1="922" x2="704" y2="922" class="grid" opacity="0.4"/>

  <text x="200" y="942" class="cell" text-anchor="middle">8192</text>
  <text x="280" y="942" class="cell" text-anchor="middle">tg128</text>
  <text x="380" y="942" class="value" text-anchor="middle">55</text>
  <text x="480" y="942" class="value" text-anchor="middle">86</text>
  <text x="600" y="942" class="gain-big" text-anchor="middle">+56.4%</text>

  <line x1="16" y1="958" x2="704" y2="958" class="grid"/>

  <!-- GPT-OSS 120B MXFP4 - MI50X2 Section -->
  <text x="360" y="982" class="model" text-anchor="middle">GPT-OSS 120B MXFP4 · Dual MI50 (@fuutott server)</text>

  <!-- Sub-header for 3-column layout -->
  <text x="80" y="1006" class="header" text-anchor="middle">CTX</text>
  <text x="160" y="1006" class="header" text-anchor="middle">TEST</text>
  <text x="300" y="1006" class="header" text-anchor="middle">VANILLA (KV F16) [tok/s]</text>
  <text x="460" y="1006" class="header" text-anchor="middle">FORK (KV F16) [tok/s]</text>
  <text x="620" y="1006" class="header" text-anchor="middle">FORK (K Q8_0, V F16) [tok/s]</text>

  <line x1="16" y1="1018" x2="704" y2="1018" class="grid" opacity="0.6"/>

  <text x="80" y="1038" class="cell" text-anchor="middle">—</text>
  <text x="160" y="1038" class="cell" text-anchor="middle">pp512</text>
  <text x="300" y="1038" class="value" text-anchor="middle">495</text>
  <text x="460" y="1038" class="value" text-anchor="middle">520</text>
  <text x="620" y="1038" class="value" text-anchor="middle">526</text>

  <line x1="16" y1="1050" x2="704" y2="1050" class="grid" opacity="0.4"/>

  <text x="80" y="1070" class="cell" text-anchor="middle">—</text>
  <text x="160" y="1070" class="cell" text-anchor="middle">tg128</text>
  <text x="300" y="1070" class="value" text-anchor="middle">88</text>
  <text x="460" y="1070" class="value" text-anchor="middle">100</text>
  <text x="620" y="1070" class="value" text-anchor="middle">100</text>

  <line x1="16" y1="1082" x2="704" y2="1082" class="grid" opacity="0.4"/>

  <text x="80" y="1102" class="cell" text-anchor="middle">8192</text>
  <text x="160" y="1102" class="cell" text-anchor="middle">pp512</text>
  <text x="300" y="1102" class="value" text-anchor="middle">380</text>
  <text x="460" y="1102" class="value" text-anchor="middle">406</text>
  <text x="620" y="1102" class="value" text-anchor="middle">430</text>

  <line x1="16" y1="1114" x2="704" y2="1114" class="grid" opacity="0.4"/>

  <text x="80" y="1134" class="cell" text-anchor="middle">8192</text>
  <text x="160" y="1134" class="cell" text-anchor="middle">tg128</text>
  <text x="300" y="1134" class="value" text-anchor="middle">79</text>
  <text x="460" y="1134" class="value" text-anchor="middle">88</text>
  <text x="620" y="1134" class="value" text-anchor="middle">90</text>

  <line x1="16" y1="1146" x2="704" y2="1146" class="grid"/>

  <!-- GPT-OSS 120B MXFP4 - MI50X2 Section (@mircoboschi) -->
  <text x="360" y="1170" class="model" text-anchor="middle">GPT-OSS 120B MXFP4 · Dual MI50 (@mircoboschi server)</text>
  <text x="360" y="1184" class="foot" text-anchor="middle">V420 bios · ROCm 7.0.1 · K F16, V F16 </text>

  <!-- Sub-header for 3-column layout -->
  <text x="80" y="1208" class="header" text-anchor="middle">CTX</text>
  <text x="160" y="1208" class="header" text-anchor="middle">TEST</text>
  <text x="300" y="1208" class="header" text-anchor="middle">FORK 2511 (pl@178W) [tok/s]</text>
  <text x="460" y="1208" class="header" text-anchor="middle">FORK 2512 (pl@178W) [tok/s]</text>
  <text x="620" y="1208" class="header" text-anchor="middle">FORK 2512 (pl@300W) [tok/s]</text>

  <line x1="16" y1="1220" x2="704" y2="1220" class="grid" opacity="0.6"/>

  <text x="80" y="1240" class="cell" text-anchor="middle">—</text>
  <text x="160" y="1240" class="cell" text-anchor="middle">pp512</text>
  <text x="300" y="1240" class="value" text-anchor="middle">496</text>
  <text x="460" y="1240" class="value" text-anchor="middle">518</text>
  <text x="620" y="1240" class="value" text-anchor="middle">539</text>

  <line x1="16" y1="1252" x2="704" y2="1252" class="grid" opacity="0.4"/>

  <text x="80" y="1272" class="cell" text-anchor="middle">—</text>
  <text x="160" y="1272" class="cell" text-anchor="middle">tg128</text>
  <text x="300" y="1272" class="value" text-anchor="middle">87</text>
  <text x="460" y="1272" class="value" text-anchor="middle">72</text>
  <text x="620" y="1272" class="value" text-anchor="middle">83</text>

  <line x1="16" y1="1284" x2="704" y2="1284" class="grid" opacity="0.4"/>

  <text x="80" y="1304" class="cell" text-anchor="middle">8192</text>
  <text x="160" y="1304" class="cell" text-anchor="middle">pp512</text>
  <text x="300" y="1304" class="value" text-anchor="middle">419</text>
  <text x="460" y="1304" class="value" text-anchor="middle">434</text>
  <text x="620" y="1304" class="value" text-anchor="middle">454</text>

  <line x1="16" y1="1316" x2="704" y2="1316" class="grid" opacity="0.4"/>

  <text x="80" y="1336" class="cell" text-anchor="middle">8192</text>
  <text x="160" y="1336" class="cell" text-anchor="middle">tg128</text>
  <text x="300" y="1336" class="value" text-anchor="middle">58</text>
  <text x="460" y="1336" class="value" text-anchor="middle">66</text>
  <text x="620" y="1336" class="value" text-anchor="middle">76</text>

  <line x1="16" y1="1348" x2="704" y2="1348" class="grid"/>
</svg>
